
  <svg width='192px'
       height='408px'
       viewBox='0 0 192 408'
       xmlns='http://www.w3.org/2000/svg'
       xmlns:xlink="http://www.w3.org/1999/xlink">

    <style type='text/css'>
    .keycap .border { stroke: black; stroke-width: 2; }
    .keycap .inner.border { stroke: rgba(0,0,0,.1); }
    </style>
    <defs>
      <linearGradient id="DCS">
        <stop offset="0%" stop-color="black" stop-opacity="0"/>
        <stop offset="40%" stop-color="black" stop-opacity="0.1"/>
        <stop offset="60%" stop-color="black" stop-opacity="0.1"/>
        <stop offset="100%" stop-color="black" stop-opacity="0"/>
      </linearGradient>
      <linearGradient id="SPACE" x1="0%" x2="0%" y1="0%" y2="100%">
        <stop offset="0%" stop-color="black" stop-opacity="0.1"/>
        <stop offset="20%" stop-color="black" stop-opacity="0.0"/>
        <stop offset="40%" stop-color="black" stop-opacity="0.0"/>
        <stop offset="100%" stop-color="black" stop-opacity="0.1"/>
      </linearGradient>
      <radialGradient id="DSA">
        <stop offset="0%" stop-color="black" stop-opacity="0.1"/>
        <stop offset="10%" stop-color="black" stop-opacity="0.1"/>
        <stop offset="100%" stop-color="black" stop-opacity="0"/>
      </radialGradient>
      <radialGradient id="SA" xlink:href="#DSA" />
    </defs>

    <g transform='translate(10,10)'>
      <rect width="172" height="388"
            stroke="#ddd" stroke-width="1" fill="#eeeeee" rx="6"/>
      <g transform='translate(5,5)'>
        
  <g class='  keycap'
  >

  
    <!-- Outer Border -->
    <rect x="1" y="1"
          width="52" height="52"
          rx="5" fill="#cccccc" class="outer border"/>
    
    <!-- Outer Fill -->
    <rect x="1" y="1"
          width="52" height="52"
          rx="5" fill="#cccccc"/>
    

    
      <!-- Inner Border -->
      <rect x="7" y="4"
            width="40" height="40"
            rx="5" fill="#fcfcfc" class="inner border"/>
      
      <!-- Inner Fill -->
      <rect x="7" y="4"
            width="40" height="40"
            rx="5" fill="#fcfcfc"/>
      
      

     
   
  </g>

  <g class='  keycap'
  >

  
    <!-- Outer Border -->
    <rect x="55" y="1"
          width="52" height="52"
          rx="5" fill="#cccccc" class="outer border"/>
    
    <!-- Outer Fill -->
    <rect x="55" y="1"
          width="52" height="52"
          rx="5" fill="#cccccc"/>
    

    
      <!-- Inner Border -->
      <rect x="61" y="4"
            width="40" height="40"
            rx="5" fill="#fcfcfc" class="inner border"/>
      
      <!-- Inner Fill -->
      <rect x="61" y="4"
            width="40" height="40"
            rx="5" fill="#fcfcfc"/>
      
      

     
   
  </g>

  <g class='  keycap'
  >

  
    <!-- Outer Border -->
    <rect x="109" y="1"
          width="52" height="52"
          rx="5" fill="#cccccc" class="outer border"/>
    
    <!-- Outer Fill -->
    <rect x="109" y="1"
          width="52" height="52"
          rx="5" fill="#cccccc"/>
    

    
      <!-- Inner Border -->
      <rect x="115" y="4"
            width="40" height="40"
            rx="5" fill="#fcfcfc" class="inner border"/>
      
      <!-- Inner Fill -->
      <rect x="115" y="4"
            width="40" height="40"
            rx="5" fill="#fcfcfc"/>
      
      

     
   
  </g>

  <g class='  keycap'
  >

  
    <!-- Outer Border -->
    <rect x="1" y="55"
          width="52" height="52"
          rx="5" fill="#cccccc" class="outer border"/>
    
    <!-- Outer Fill -->
    <rect x="1" y="55"
          width="52" height="52"
          rx="5" fill="#cccccc"/>
    

    
      <!-- Inner Border -->
      <rect x="7" y="58"
            width="40" height="40"
            rx="5" fill="#fcfcfc" class="inner border"/>
      
      <!-- Inner Fill -->
      <rect x="7" y="58"
            width="40" height="40"
            rx="5" fill="#fcfcfc"/>
      
      

     
   
  </g>

  <g class='  keycap'
  >

  
    <!-- Outer Border -->
    <rect x="55" y="55"
          width="52" height="52"
          rx="5" fill="#cccccc" class="outer border"/>
    
    <!-- Outer Fill -->
    <rect x="55" y="55"
          width="52" height="52"
          rx="5" fill="#cccccc"/>
    

    
      <!-- Inner Border -->
      <rect x="61" y="58"
            width="40" height="40"
            rx="5" fill="#fcfcfc" class="inner border"/>
      
      <!-- Inner Fill -->
      <rect x="61" y="58"
            width="40" height="40"
            rx="5" fill="#fcfcfc"/>
      
      

     
   
  </g>

  <g class='  keycap'
  >

  
    <!-- Outer Border -->
    <rect x="109" y="55"
          width="52" height="52"
          rx="5" fill="#cccccc" class="outer border"/>
    
    <!-- Outer Fill -->
    <rect x="109" y="55"
          width="52" height="52"
          rx="5" fill="#cccccc"/>
    

    
      <!-- Inner Border -->
      <rect x="115" y="58"
            width="40" height="40"
            rx="5" fill="#fcfcfc" class="inner border"/>
      
      <!-- Inner Fill -->
      <rect x="115" y="58"
            width="40" height="40"
            rx="5" fill="#fcfcfc"/>
      
      

     
   
  </g>

  <g class='  keycap'
  >

  
    <!-- Outer Border -->
    <rect x="1" y="109"
          width="52" height="52"
          rx="5" fill="#cccccc" class="outer border"/>
    
    <!-- Outer Fill -->
    <rect x="1" y="109"
          width="52" height="52"
          rx="5" fill="#cccccc"/>
    

    
      <!-- Inner Border -->
      <rect x="7" y="112"
            width="40" height="40"
            rx="5" fill="#fcfcfc" class="inner border"/>
      
      <!-- Inner Fill -->
      <rect x="7" y="112"
            width="40" height="40"
            rx="5" fill="#fcfcfc"/>
      
      

     
   
  </g>

  <g class='  keycap'
  >

  
    <!-- Outer Border -->
    <rect x="55" y="109"
          width="52" height="52"
          rx="5" fill="#cccccc" class="outer border"/>
    
    <!-- Outer Fill -->
    <rect x="55" y="109"
          width="52" height="52"
          rx="5" fill="#cccccc"/>
    

    
      <!-- Inner Border -->
      <rect x="61" y="112"
            width="40" height="40"
            rx="5" fill="#fcfcfc" class="inner border"/>
      
      <!-- Inner Fill -->
      <rect x="61" y="112"
            width="40" height="40"
            rx="5" fill="#fcfcfc"/>
      
      

     
   
  </g>

  <g class='  keycap'
  >

  
    <!-- Outer Border -->
    <rect x="109" y="109"
          width="52" height="52"
          rx="5" fill="#cccccc" class="outer border"/>
    
    <!-- Outer Fill -->
    <rect x="109" y="109"
          width="52" height="52"
          rx="5" fill="#cccccc"/>
    

    
      <!-- Inner Border -->
      <rect x="115" y="112"
            width="40" height="40"
            rx="5" fill="#fcfcfc" class="inner border"/>
      
      <!-- Inner Fill -->
      <rect x="115" y="112"
            width="40" height="40"
            rx="5" fill="#fcfcfc"/>
      
      

     
   
  </g>

  <g class='  keycap'
  >

  
    <!-- Outer Border -->
    <rect x="1" y="217"
          width="52" height="52"
          rx="5" fill="#cccccc" class="outer border"/>
    
    <!-- Outer Fill -->
    <rect x="1" y="217"
          width="52" height="52"
          rx="5" fill="#cccccc"/>
    

    
      <!-- Inner Border -->
      <rect x="7" y="220"
            width="40" height="40"
            rx="5" fill="#fcfcfc" class="inner border"/>
      
      <!-- Inner Fill -->
      <rect x="7" y="220"
            width="40" height="40"
            rx="5" fill="#fcfcfc"/>
      
      

     
   
  </g>

  <g class='  keycap'
  >

  
    <!-- Outer Border -->
    <rect x="55" y="217"
          width="52" height="52"
          rx="5" fill="#cccccc" class="outer border"/>
    
    <!-- Outer Fill -->
    <rect x="55" y="217"
          width="52" height="52"
          rx="5" fill="#cccccc"/>
    

    
      <!-- Inner Border -->
      <rect x="61" y="220"
            width="40" height="40"
            rx="5" fill="#fcfcfc" class="inner border"/>
      
      <!-- Inner Fill -->
      <rect x="61" y="220"
            width="40" height="40"
            rx="5" fill="#fcfcfc"/>
      
      

     
   
  </g>

  <g class='  keycap'
  >

  
    <!-- Outer Border -->
    <rect x="109" y="217"
          width="52" height="52"
          rx="5" fill="#cccccc" class="outer border"/>
    
    <!-- Outer Fill -->
    <rect x="109" y="217"
          width="52" height="52"
          rx="5" fill="#cccccc"/>
    

    
      <!-- Inner Border -->
      <rect x="115" y="220"
            width="40" height="40"
            rx="5" fill="#fcfcfc" class="inner border"/>
      
      <!-- Inner Fill -->
      <rect x="115" y="220"
            width="40" height="40"
            rx="5" fill="#fcfcfc"/>
      
      

     
   
  </g>

  <g class='  keycap'
  >

  
    <!-- Outer Border -->
    <rect x="1" y="271"
          width="52" height="52"
          rx="5" fill="#cccccc" class="outer border"/>
    
    <!-- Outer Fill -->
    <rect x="1" y="271"
          width="52" height="52"
          rx="5" fill="#cccccc"/>
    

    
      <!-- Inner Border -->
      <rect x="7" y="274"
            width="40" height="40"
            rx="5" fill="#fcfcfc" class="inner border"/>
      
      <!-- Inner Fill -->
      <rect x="7" y="274"
            width="40" height="40"
            rx="5" fill="#fcfcfc"/>
      
      

     
   
  </g>

  <g class='  keycap'
  >

  
    <!-- Outer Border -->
    <rect x="55" y="271"
          width="52" height="52"
          rx="5" fill="#cccccc" class="outer border"/>
    
    <!-- Outer Fill -->
    <rect x="55" y="271"
          width="52" height="52"
          rx="5" fill="#cccccc"/>
    

    
      <!-- Inner Border -->
      <rect x="61" y="274"
            width="40" height="40"
            rx="5" fill="#fcfcfc" class="inner border"/>
      
      <!-- Inner Fill -->
      <rect x="61" y="274"
            width="40" height="40"
            rx="5" fill="#fcfcfc"/>
      
      

     
   
  </g>

  <g class='  keycap'
  >

  
    <!-- Outer Border -->
    <rect x="109" y="271"
          width="52" height="52"
          rx="5" fill="#cccccc" class="outer border"/>
    
    <!-- Outer Fill -->
    <rect x="109" y="271"
          width="52" height="52"
          rx="5" fill="#cccccc"/>
    

    
      <!-- Inner Border -->
      <rect x="115" y="274"
            width="40" height="40"
            rx="5" fill="#fcfcfc" class="inner border"/>
      
      <!-- Inner Fill -->
      <rect x="115" y="274"
            width="40" height="40"
            rx="5" fill="#fcfcfc"/>
      
      

     
   
  </g>

  <g class='  keycap'
  >

  
    <!-- Outer Border -->
    <rect x="1" y="325"
          width="106" height="52"
          rx="5" fill="#cccccc" class="outer border"/>
    
    <!-- Outer Fill -->
    <rect x="1" y="325"
          width="106" height="52"
          rx="5" fill="#cccccc"/>
    

    
      <!-- Inner Border -->
      <rect x="7" y="328"
            width="94" height="40"
            rx="5" fill="#fcfcfc" class="inner border"/>
      
      <!-- Inner Fill -->
      <rect x="7" y="328"
            width="94" height="40"
            rx="5" fill="#fcfcfc"/>
      
      

     
   
  </g>

  <g class='  keycap'
  >

  
    <!-- Outer Border -->
    <rect x="109" y="325"
          width="52" height="52"
          rx="5" fill="#cccccc" class="outer border"/>
    
    <!-- Outer Fill -->
    <rect x="109" y="325"
          width="52" height="52"
          rx="5" fill="#cccccc"/>
    

    
      <!-- Inner Border -->
      <rect x="115" y="328"
            width="40" height="40"
            rx="5" fill="#fcfcfc" class="inner border"/>
      
      <!-- Inner Fill -->
      <rect x="115" y="328"
            width="40" height="40"
            rx="5" fill="#fcfcfc"/>
      
      

     
   
  </g>

      </g>
    </g>
  </svg>
